<svg id="Layer_1" data-name="Layer 1" xmlns="http://www.w3.org/2000/svg" viewBox="0 0 576 576"><defs><style>.cls-1{fill:#39D353;}</style></defs><circle class="cls-1" cx="97.28" cy="109.41" r="45.38"/><path class="cls-1" d="M424.31,309.88a20.37,20.37,0,0,1-6-3.67c-4.59-4-9.75-11.68-9.25-18,0,0-.28,0-.76.17a38.42,38.42,0,0,1-.36-5.11c0-1.07,0-2.14.11-3.2.86-11.71,8.61-21.66,19.36-26.38a66.42,66.42,0,0,0,39.57-60.9c0-36.65-29.45-66.37-65.78-66.37a65.83,65.83,0,0,0-61.2,42,20.36,20.36,0,0,1-6.95,9.06,19.37,19.37,0,0,1-13,3.71l-.71-.06-.3,0a36,36,0,0,1-30.2-24.28c-.16-.46-.32-.91-.47-1.36a76.44,76.44,0,0,0-145.84,6.92,0,0,0,0,0,0,0,76.51,76.51,0,0,0,46.78,95.93l1.09.38a36,36,0,0,1,24.28,30.19l0,.31.06.71A19.55,19.55,0,0,1,208,306.21a20.37,20.37,0,0,1-6,3.67,65.81,65.81,0,0,0-42,61.2c0,36.33,29.72,65.78,66.37,65.78a66.39,66.39,0,0,0,60.9-39.57c4.66-10.62,14.4-18.29,25.92-19.32,11.52,1,21.26,8.7,25.92,19.32A66.39,66.39,0,0,0,400,436.86c36.65,0,66.37-29.45,66.37-65.78A65.81,65.81,0,0,0,424.31,309.88Zm-109.6,0a33,33,0,1,1,33-33A33,33,0,0,1,314.71,309.9Z"/><circle class="cls-1" cx="488.2" cy="129.81" r="33.03"/><circle class="cls-1" cx="495.1" cy="442.6" r="29.01"/><circle class="cls-1" cx="166.79" cy="477.5" r="34.47"/></svg>